<?xml version="1.0" encoding="UTF-8" standalone="no"?>
<!DOCTYPE svg PUBLIC "-//W3C//DTD SVG 1.1//EN" "http://www.w3.org/Graphics/SVG/1.1/DTD/svg11.dtd">
<svg width="100%" height="100%" viewBox="0 0 1631 465" version="1.1" xmlns="http://www.w3.org/2000/svg" xmlns:xlink="http://www.w3.org/1999/xlink" xml:space="preserve" style="fill-rule:evenodd;clip-rule:evenodd;stroke-linejoin:round;stroke-miterlimit:1.41421;">
    <g id="Artboard1" transform="matrix(1,0,0,1,-91.7089,-459.684)">
        <rect x="91.709" y="459.684" width="1630.25" height="464.81" style="fill:none;"/>
        <g transform="matrix(1,0,0,1,-333.626,68.7758)">
            <path d="M469.367,701.499C463.015,701.499 457.136,700.598 451.728,698.795C446.321,696.993 441.686,694.375 437.823,690.942C433.961,687.508 430.914,683.259 428.682,678.195C426.45,673.131 425.335,667.252 425.335,660.557L445.935,660.557C446.106,668.797 448.381,674.719 452.758,678.324C457.136,681.929 462.93,683.732 470.14,683.732C477.178,683.732 482.671,681.843 486.62,678.067C490.568,674.29 492.542,669.226 492.542,662.874C492.542,659.612 491.77,656.823 490.225,654.505C488.68,652.188 486.662,650.171 484.173,648.454C481.684,646.737 478.766,645.235 475.418,643.948C472.071,642.66 468.595,641.33 464.99,639.957C460.87,638.412 456.707,636.695 452.501,634.807C448.295,632.918 444.518,630.558 441.171,627.725C437.823,624.893 435.077,621.417 432.931,617.297C430.785,613.177 429.712,608.198 429.712,602.362C429.712,597.898 430.57,593.564 432.287,589.358C434.004,585.152 436.493,581.418 439.755,578.157C443.016,574.895 447.093,572.32 451.986,570.432C456.878,568.543 462.5,567.599 468.852,567.599C481.727,567.599 491.641,570.861 498.593,577.384C505.546,583.908 509.022,592.405 509.022,602.877L489.452,602.877C489.28,597.383 487.65,592.877 484.56,589.358C481.47,585.839 476.32,584.079 469.11,584.079C462.586,584.079 457.694,585.796 454.432,589.229C451.17,592.663 449.54,596.868 449.54,601.847C449.54,604.937 450.312,607.598 451.857,609.829C453.402,612.061 455.462,614.035 458.037,615.752C460.612,617.468 463.53,619.056 466.792,620.515C470.054,621.975 473.487,623.391 477.092,624.764C481.384,626.481 485.59,628.283 489.71,630.172C493.83,632.06 497.563,634.42 500.911,637.253C504.258,640.085 506.962,643.519 509.022,647.553C511.082,651.587 512.112,656.608 512.112,662.617C512.112,667.423 511.254,672.187 509.537,676.908C507.82,681.629 505.202,685.792 501.683,689.397C498.164,693.002 493.701,695.92 488.293,698.152C482.886,700.383 476.577,701.499 469.367,701.499Z" style="fill-rule:nonzero;"/>
            <path d="M602.237,701.499C592.795,701.499 584.04,699.739 575.972,696.22C567.904,692.701 560.951,687.894 555.114,681.8C549.278,675.706 544.686,668.625 541.338,660.557C537.991,652.488 536.317,643.819 536.317,634.549C536.317,625.279 537.948,616.61 541.209,608.542C544.471,600.473 549.02,593.392 554.857,587.298C560.694,581.204 567.646,576.397 575.714,572.878C583.783,569.359 592.624,567.599 602.237,567.599C610.477,567.599 619.06,569.616 627.987,573.651C636.913,577.685 644.123,583.564 649.617,591.289L649.617,570.174L669.444,570.174L669.444,698.924L649.617,698.924L649.617,677.809C644.123,685.534 636.913,691.414 627.987,695.448C619.06,699.482 610.477,701.499 602.237,701.499ZM603.267,683.474C610.134,683.474 616.528,682.187 622.451,679.612C628.373,677.037 633.48,673.56 637.772,669.183C642.063,664.805 645.411,659.612 647.814,653.604C650.218,647.596 651.419,641.244 651.419,634.549C651.419,627.854 650.218,621.545 647.814,615.623C645.411,609.7 642.063,604.508 637.772,600.044C633.48,595.581 628.373,592.062 622.451,589.487C616.528,586.912 610.134,585.624 603.267,585.624C596.744,585.624 590.606,586.912 584.856,589.487C579.105,592.062 574.126,595.538 569.921,599.915C565.715,604.293 562.41,609.486 560.007,615.494C557.604,621.503 556.402,627.854 556.402,634.549C556.402,641.244 557.604,647.596 560.007,653.604C562.41,659.612 565.715,664.805 569.921,669.183C574.126,673.56 579.105,677.037 584.856,679.612C590.606,682.187 596.744,683.474 603.267,683.474Z" style="fill-rule:nonzero;"/>
            <path d="M705.494,570.174L725.064,570.174L725.064,587.684C729.356,581.504 734.978,576.612 741.93,573.007C748.883,569.402 756.994,567.599 766.264,567.599C777.937,567.599 787.594,570.046 795.233,574.938C802.872,579.831 808.494,586.139 812.099,593.864C816.219,585.968 822.313,579.616 830.381,574.809C838.45,570.003 847.891,567.599 858.706,567.599C867.976,567.599 876.173,568.93 883.298,571.591C890.422,574.251 896.43,578.028 901.323,582.92C906.215,587.813 909.906,593.693 912.395,600.559C914.884,607.426 916.129,614.979 916.129,623.219L916.129,698.924L896.044,698.924L896.044,621.932C896.044,611.117 892.696,602.319 886.001,595.538C879.306,588.757 870.122,585.367 858.449,585.367C853.127,585.367 848.192,586.225 843.643,587.942C839.094,589.658 835.102,592.19 831.669,595.538C828.236,598.885 825.532,602.963 823.558,607.769C821.584,612.576 820.596,617.983 820.596,623.992L820.596,698.924L800.769,698.924L800.769,619.614C800.769,609.314 797.464,601.031 790.855,594.765C784.246,588.5 775.534,585.367 764.719,585.367C759.054,585.367 753.818,586.311 749.012,588.199C744.205,590.088 740.042,592.748 736.523,596.182C733.004,599.615 730.257,603.864 728.283,608.928C726.309,613.992 725.322,619.786 725.322,626.309L725.322,698.924L705.494,698.924L705.494,570.174Z" style="fill-rule:nonzero;"/>
            <path d="M1015.27,570.174L1037.41,570.174L1037.41,560.132C1037.41,550.518 1038.18,542.536 1039.73,536.184C1041.27,529.833 1043.93,524.811 1047.71,521.121C1051.49,517.43 1056.51,514.812 1062.78,513.267C1069.04,511.722 1076.89,510.949 1086.34,510.949L1088.14,510.949L1088.14,529.232C1081.27,529.232 1075.82,529.618 1071.79,530.391C1067.75,531.163 1064.66,532.665 1062.52,534.897C1060.37,537.128 1059,540.304 1058.4,544.424C1057.8,548.544 1057.5,553.866 1057.5,560.389L1057.5,570.174L1088.14,570.174L1088.14,588.199L1057.5,588.199L1057.5,698.924L1037.41,698.924L1037.41,588.199L1015.27,588.199L1015.27,570.174ZM1104.88,510.949L1124.96,510.949L1124.96,698.924L1104.88,698.924L1104.88,510.949Z" style="fill-rule:nonzero;"/>
            <path d="M1219.46,701.499C1209.34,701.499 1200.19,699.739 1192.04,696.22C1183.88,692.701 1176.93,687.98 1171.18,682.058C1165.43,676.135 1161.01,669.14 1157.92,661.072C1154.83,653.003 1153.29,644.506 1153.29,635.579C1153.29,625.966 1154.96,616.996 1158.31,608.67C1161.65,600.345 1166.29,593.135 1172.21,587.04C1178.13,580.946 1185.17,576.183 1193.33,572.749C1201.48,569.316 1210.37,567.599 1219.98,567.599C1229.25,567.599 1237.92,569.144 1245.99,572.234C1254.05,575.324 1261.05,579.702 1266.97,585.367C1272.89,591.032 1277.53,597.855 1280.88,605.838C1284.22,613.82 1285.9,622.704 1285.9,632.489L1285.9,640.472L1172.34,640.472C1172.86,646.48 1174.36,652.145 1176.85,657.467C1179.34,662.788 1182.64,667.38 1186.76,671.243C1190.88,675.105 1195.73,678.152 1201.31,680.384C1206.89,682.616 1213.03,683.732 1219.72,683.732C1230.54,683.732 1239.63,681.242 1247.02,676.264C1254.4,671.286 1259.55,664.419 1262.47,655.664L1283.84,655.664C1279.2,669.912 1271.43,681.114 1260.54,689.268C1249.63,697.422 1235.94,701.499 1219.46,701.499ZM1219.98,585.367C1208.31,585.367 1198.35,588.843 1190.11,595.795C1181.87,602.748 1176.46,611.632 1173.89,622.447L1265.56,622.447C1263.67,610.773 1258.73,601.675 1250.75,595.152C1242.77,588.628 1232.51,585.367 1219.98,585.367Z" style="fill-rule:nonzero;"/>
            <path d="M1303.67,570.174L1325.81,570.174L1325.81,539.789L1345.9,528.717L1345.9,570.174L1376.28,570.174L1376.28,588.199L1345.9,588.199L1345.9,649.484C1345.9,656.007 1346.28,661.286 1347.05,665.32C1347.83,669.355 1349.33,672.445 1351.56,674.59C1353.79,676.736 1356.88,678.195 1360.83,678.968C1364.78,679.74 1369.93,680.127 1376.28,680.127L1376.28,698.924L1373.45,698.924C1364.01,698.924 1356.24,698.152 1350.14,696.607C1344.05,695.062 1339.2,692.444 1335.6,688.753C1331.99,685.062 1329.46,680.041 1328,673.689C1326.54,667.337 1325.81,659.355 1325.81,649.742L1325.81,588.199L1303.67,588.199L1303.67,570.174Z" style="fill-rule:nonzero;"/>
            <path d="M1462.29,701.499C1453.02,701.499 1444.35,699.782 1436.28,696.349C1428.21,692.916 1421.13,688.195 1415.03,682.187C1408.94,676.178 1404.18,669.097 1400.74,660.943C1397.31,652.789 1395.59,643.991 1395.59,634.549C1395.59,625.108 1397.31,616.31 1400.74,608.155C1404.18,600.001 1408.94,592.92 1415.03,586.912C1421.13,580.903 1428.21,576.183 1436.28,572.749C1444.35,569.316 1453.02,567.599 1462.29,567.599C1471.38,567.599 1479.71,568.973 1487.26,571.719C1494.82,574.466 1501.42,578.286 1507.09,583.178C1512.76,588.07 1517.43,593.907 1521.12,600.688C1524.82,607.469 1527.26,614.979 1528.46,623.219L1508.12,623.219C1506.23,611.889 1501.21,602.791 1493.06,595.924C1484.9,589.058 1474.64,585.624 1462.29,585.624C1455.76,585.624 1449.67,586.912 1444,589.487C1438.34,592.062 1433.4,595.538 1429.2,599.915C1424.99,604.293 1421.69,609.486 1419.28,615.494C1416.88,621.503 1415.68,627.854 1415.68,634.549C1415.68,641.244 1416.88,647.596 1419.28,653.604C1421.69,659.612 1424.99,664.805 1429.2,669.183C1433.4,673.56 1438.34,677.037 1444,679.612C1449.67,682.187 1455.76,683.474 1462.29,683.474C1468.12,683.474 1473.57,682.53 1478.64,680.642C1483.7,678.753 1488.25,676.135 1492.28,672.788C1496.32,669.44 1499.71,665.449 1502.45,660.814C1505.2,656.179 1507.09,651.029 1508.12,645.364L1528.46,645.364C1527.26,653.776 1524.73,661.415 1520.87,668.282C1517,675.148 1512.15,681.028 1506.32,685.92C1500.48,690.813 1493.83,694.632 1486.36,697.379C1478.89,700.126 1470.87,701.499 1462.29,701.499Z" style="fill-rule:nonzero;"/>
            <path d="M1558.59,510.949L1578.16,510.949L1578.16,588.972C1582.62,582.448 1588.59,577.256 1596.06,573.393C1603.52,569.531 1612.15,567.599 1621.93,567.599C1639.27,567.599 1652.92,572.878 1662.88,583.435C1672.83,593.993 1677.81,608.628 1677.81,627.339L1677.81,698.924L1657.73,698.924L1657.73,627.339C1657.73,614.808 1654.51,604.722 1648.07,597.083C1641.63,589.444 1631.98,585.624 1619.1,585.624C1613.27,585.624 1607.86,586.697 1602.88,588.843C1597.9,590.989 1593.61,593.95 1590.01,597.727C1586.4,601.503 1583.57,605.967 1581.51,611.117C1579.45,616.267 1578.42,621.76 1578.42,627.597L1578.42,698.924L1558.59,698.924L1558.59,510.949Z" style="fill-rule:nonzero;"/>
            <path d="M1773.35,701.499C1763.22,701.499 1754.08,699.739 1745.92,696.22C1737.77,692.701 1730.82,687.98 1725.06,682.058C1719.31,676.135 1714.89,669.14 1711.8,661.072C1708.71,653.003 1707.17,644.506 1707.17,635.579C1707.17,625.966 1708.84,616.996 1712.19,608.67C1715.54,600.345 1720.17,593.135 1726.09,587.04C1732.02,580.946 1739.06,576.183 1747.21,572.749C1755.36,569.316 1764.25,567.599 1773.86,567.599C1783.13,567.599 1791.8,569.144 1799.87,572.234C1807.94,575.324 1814.93,579.702 1820.85,585.367C1826.78,591.032 1831.41,597.855 1834.76,605.838C1838.11,613.82 1839.78,622.704 1839.78,632.489L1839.78,640.472L1726.22,640.472C1726.74,646.48 1728.24,652.145 1730.73,657.467C1733.22,662.788 1736.52,667.38 1740.64,671.243C1744.76,675.105 1749.61,678.152 1755.19,680.384C1760.77,682.616 1766.91,683.732 1773.6,683.732C1784.42,683.732 1793.52,681.242 1800.9,676.264C1808.28,671.286 1813.43,664.419 1816.35,655.664L1837.72,655.664C1833.09,669.912 1825.32,681.114 1814.42,689.268C1803.52,697.422 1789.83,701.499 1773.35,701.499ZM1773.86,585.367C1762.19,585.367 1752.23,588.843 1743.99,595.795C1735.75,602.748 1730.34,611.632 1727.77,622.447L1819.44,622.447C1817.55,610.773 1812.61,601.675 1804.63,595.152C1796.65,588.628 1786.39,585.367 1773.86,585.367Z" style="fill-rule:nonzero;"/>
            <path d="M1869.91,570.174L1889.74,570.174L1889.74,588.714C1893.17,582.706 1897.93,578.114 1904.03,574.938C1910.12,571.762 1917.29,570.174 1925.53,570.174L1941.49,570.174L1941.49,588.714L1925.53,588.714C1912.48,588.714 1903.3,592.19 1897.98,599.143C1892.65,606.095 1889.99,617.125 1889.99,632.232L1889.99,698.924L1869.91,698.924L1869.91,570.174Z" style="fill-rule:nonzero;"/>
        </g>
    </g>
</svg>
